<?xml version="1.0" encoding="UTF-8"?>
<!-- Created with Inkscape (http://www.inkscape.org/) -->
<svg width="15mm" height="15mm" version="1.1" viewBox="0 0 15 15" xmlns="http://www.w3.org/2000/svg" xmlns:cc="http://creativecommons.org/ns#" xmlns:dc="http://purl.org/dc/elements/1.1/" xmlns:rdf="http://www.w3.org/1999/02/22-rdf-syntax-ns#">
 <metadata>
  <rdf:RDF>
   <cc:Work rdf:about="">
    <dc:format>image/svg+xml</dc:format>
    <dc:type rdf:resource="http://purl.org/dc/dcmitype/StillImage"/>
    <dc:title/>
   </cc:Work>
  </rdf:RDF>
 </metadata>
 <g transform="translate(0,-282)">
  <path d="m7.1901 282a7.8034 7.4976 0 0 0-7.1727 4.5487c1.7735-1.6358 4.4962-2.6981 7.5116-2.6981 2.8247 0 4.6902 1.0945 4.6902 2.7476 0 1.3403-1.0395 2.4125-2.9581 3.038-1.7854 0.58081-3.7835 0.87113-6.0485 0.87113-0.1066 0-0.40004-1.9e-4 -0.69317-0.0226-0.05328 0.37974-0.080136 0.67037-0.080136 0.96077 0 1.251 1.0393 2.0777 2.6382 2.0777 1.5989 1e-5 3.1715-0.62557 5.0102-1.9436l1.439 1.3177c-0.47966 0.44677-1.0396 0.80459-1.8923 1.2737-1.9453 1.0499-3.5974 1.4964-5.436 1.4964-0.57382 0-1.1157-0.0511-1.629-0.13912a7.8034 7.4976 0 0 0 4.621 1.4667 7.8034 7.4976 0 0 0 7.8035-7.4976 7.8034 7.4976 0 0 0-7.8035-7.4976zm-0.40697 3.5929c-0.95931 0-1.9186 0.46883-2.6914 1.3177-0.61288 0.64781-1.0393 1.3854-1.1992 2.0332h0.31997c2.7713 0 5.0628-1.0275 5.0628-2.2785 3.6e-6 -0.62549-0.61286-1.0724-1.4922-1.0724z" fill="#54776d" fill-opacity=".99248" stroke-width=".28727"/>
 </g>
</svg>
