<?xml version="1.0" encoding="UTF-8"?>
<!-- Created with Inkscape (http://www.inkscape.org/) -->
<svg width="15mm" height="15mm" version="1.1" viewBox="0 0 15 15" xmlns="http://www.w3.org/2000/svg" xmlns:cc="http://creativecommons.org/ns#" xmlns:dc="http://purl.org/dc/elements/1.1/" xmlns:rdf="http://www.w3.org/1999/02/22-rdf-syntax-ns#">
 <metadata>
  <rdf:RDF>
   <cc:Work rdf:about="">
    <dc:format>image/svg+xml</dc:format>
    <dc:type rdf:resource="http://purl.org/dc/dcmitype/StillImage"/>
    <dc:title/>
   </cc:Work>
  </rdf:RDF>
 </metadata>
 <g transform="translate(0,-282)">
  <path d="m7.5342 282.47a7.045 7.045 0 0 0-6.4756 4.2742c1.6012-1.5371 4.0592-2.5352 6.7815-2.5352 2.5501 0 4.2344 1.0285 4.2344 2.5818 0 1.2594-0.93848 2.2669-2.6706 2.8546-1.6119 0.54576-3.4158 0.81856-5.4607 0.81856-0.09624 0-0.36116-1.9e-4 -0.6258-0.0212-0.048101 0.35684-0.072348 0.62992-0.072348 0.90279 0 1.1755 0.93832 1.9523 2.3818 1.9523 1.4435 1e-5 2.8633-0.58781 4.5232-1.8262l1.2991 1.2382c-0.43304 0.4198-0.93858 0.75602-1.7084 1.1968-1.7562 0.98655-3.2477 1.4061-4.9077 1.4061-0.51805 0-1.0073-0.0481-1.4707-0.13074a7.045 7.045 0 0 0 4.1718 1.3782 7.045 7.045 0 0 0 7.0451-7.045 7.045 7.045 0 0 0-7.0451-7.045zm-0.36742 3.376c-0.86607 0-1.7322 0.44054-2.4298 1.2382-0.55332 0.60871-0.93828 1.3018-1.0826 1.9105h0.28887c2.502 0 4.5708-0.96549 4.5708-2.141 3e-6 -0.58773-0.55329-1.0077-1.3472-1.0077z" stroke-width=".26458"/>
 </g>
</svg>
